<svg xmlns="http://www.w3.org/2000/svg" xmlns:xlink="http://www.w3.org/1999/xlink" viewBox="0,0,256,256" width="96px" height="96px"><defs><linearGradient x1="24" y1="41" x2="24" y2="7" gradientUnits="userSpaceOnUse" id="color-1"><stop offset="0" stop-color="#643499"></stop><stop offset="0.011" stop-color="#68369f"></stop><stop offset="0.135" stop-color="#773db6"></stop><stop offset="0.193" stop-color="#8042c3"></stop><stop offset="0.248" stop-color="#8343c8"></stop><stop offset="0.388" stop-color="#8444c9"></stop><stop offset="0.732" stop-color="#9751d2"></stop><stop offset="0.997" stop-color="#9c55d4"></stop><stop offset="0.998" stop-color="#9c55d4"></stop><stop offset="1" stop-color="#9c55d4"></stop></linearGradient></defs><g transform="translate(-15.36,-15.36) scale(1.12,1.12)"><g fill="none" fill-rule="nonzero" stroke="none" stroke-width="1" stroke-linecap="butt" stroke-linejoin="miter" stroke-miterlimit="10" stroke-dasharray="" stroke-dashoffset="0" font-family="none" font-weight="none" font-size="none" text-anchor="none" style="mix-blend-mode: normal"><g transform="translate(-0.00267,0) scale(5.33333,5.33333)"><path d="M7.373,11.443c-0.08,-2.311 1.721,-4.443 4.156,-4.443h24.946c2.435,0 4.236,2.132 4.155,4.443c-0.077,2.221 0.023,5.097 0.747,7.443c0.681,2.207 1.801,3.652 3.593,3.981c0.206,0.038 0.363,0.205 0.363,0.415v1.438c0,0.21 -0.157,0.377 -0.363,0.415c-1.792,0.328 -2.912,1.773 -3.593,3.981c-0.724,2.345 -0.824,5.222 -0.747,7.443c0.08,2.309 -1.721,4.441 -4.155,4.441h-24.946c-2.434,0 -4.236,-2.132 -4.155,-4.443c0.077,-2.221 -0.023,-5.097 -0.747,-7.443c-0.681,-2.207 -1.804,-3.652 -3.596,-3.981c-0.206,-0.038 -0.363,-0.205 -0.363,-0.415v-1.438c0,-0.21 0.157,-0.377 0.363,-0.415c1.792,-0.328 2.915,-1.773 3.596,-3.981c0.723,-2.344 0.824,-5.22 0.746,-7.441z" fill="url(#color-1)"></path><path d="M27.073,23.464v-0.028c1.853,-0.32 3.299,-2.057 3.299,-3.97c0,-1.352 -0.52,-2.498 -1.504,-3.312c-0.981,-0.812 -2.357,-1.241 -3.981,-1.241h-7.437v18.167h7.475c1.942,0 3.555,-0.474 4.663,-1.372c1.109,-0.899 1.696,-2.207 1.696,-3.783c-0.001,-2.381 -1.691,-4.169 -4.211,-4.461zM23.59,22.608h-3.181v-5.318h3.784c2.076,0 3.219,0.911 3.219,2.565c0.001,1.775 -1.357,2.753 -3.822,2.753zM20.409,24.834h3.759c2.716,0 4.092,0.981 4.092,2.916c0,1.932 -1.357,2.953 -3.925,2.953h-3.926z" fill="#ffffff"></path></g></g></g></svg>